# xmcd
#
# Track frame offsets:
#	150
#	10730
#	27145
#	44629
#	64192
#	76997
#	88789
#	101558
#	119630
#	136634
#	148639
#	161742
#	175455
#	189900
#	201402
#	213932
#
# Disc length: 2992 seconds
#
# Revision: 4
# Processed by: cddbd v1.5.2PL0 Copyright (c) Steve Scherf et al.
# Submitted via: audiograbber 1.83.01
#
DISCID=e00bae10
DTITLE=Various Artist - Elite Country [Disc 5]
DYEAR=2002
DGENRE=Country
TTITLE0=Kris Kristofferson - Help Me Make It Through The Night
TTITLE1=Joe South - Walk A Mile In My Shoes
TTITLE2=Dingoes - Way Out West
TTITLE3=Brian Cadd - Let Go
TTITLE4=Charlie Rich - The Most Beautiful Girl
TTITLE5=Skeeter Davis - (I Can`t Help You) I'm Falling Too
TTITLE6=Charlie McCoy - Orange Blossom Special
TTITLE7=Billy Swan - I Can Help
TTITLE8=Colleen Hewett - Dreaming My Dreams With You
TTITLE9=Jody Miller - Queen Of The House
TTITLE10=Kenny Rogers - Ruby, Don't Take Your Love To Town
TTITLE11=Patti Page - Tennessee Waltz
TTITLE12=Jeannie C. Riley - Harper Valley PTA
TTITLE13=Freddy Fender - Before The Next Teardrop Falls
TTITLE14=Bobby and Laurie - Carroll County Accident
TTITLE15=Ricky Nelson - Hello Mary Lou
EXTD=
EXTT0=
EXTT1=
EXTT2=
EXTT3=
EXTT4=
EXTT5=
EXTT6=
EXTT7=
EXTT8=
EXTT9=
EXTT10=
EXTT11=
EXTT12=
EXTT13=
EXTT14=
EXTT15=
PLAYORDER=
